<svg xmlns="http://www.w3.org/2000/svg" xmlns:xlink="http://www.w3.org/1999/xlink" width="527.702" height="171.812" viewBox="0 0 527.702 171.812">
  <defs>
    <linearGradient id="linear-gradient" x1="0.028" y1="1.444" x2="1.168" y2="1.451" gradientUnits="objectBoundingBox">
      <stop offset="0" stop-color="#3c5968"/>
      <stop offset="0.473" stop-color="#4f7181"/>
      <stop offset="1" stop-color="#5a959a"/>
    </linearGradient>
    <filter id="Pfad_322" x="0" y="0" width="261.6" height="54.42" filterUnits="userSpaceOnUse">
      <feOffset dy="3" input="SourceAlpha"/>
      <feGaussianBlur stdDeviation="1.5" result="blur"/>
      <feFlood flood-opacity="0.161"/>
      <feComposite operator="in" in2="blur"/>
      <feComposite in="SourceGraphic"/>
    </filter>
    <filter id="Pfad_321" x="5.538" y="74.745" width="522.164" height="97.066" filterUnits="userSpaceOnUse">
      <feOffset dy="3" input="SourceAlpha"/>
      <feGaussianBlur stdDeviation="1.5" result="blur-2"/>
      <feFlood flood-opacity="0.161"/>
      <feComposite operator="in" in2="blur-2"/>
      <feComposite in="SourceGraphic"/>
    </filter>
  </defs>
  <g id="Gruppe_444" data-name="Gruppe 444" transform="translate(-131.22 -675.86)">
    <g transform="matrix(1, 0, 0, 1, 131.22, 675.86)" filter="url(#Pfad_322)">
      <path id="Pfad_322-2" data-name="Pfad 322" d="M45-37.74l5.34.78L37.08-7.62,33.84-37.08l5.58-.66.48-2.46H24.12l-.48,2.46,5.76.72L15.42-7.98,13.74-37.02l5.64-.72.48-2.46H4.2l-.48,2.46,4.68.6L11.76.6h2.46L29.76-31.44,33.9.6h2.4L53.52-37.02l4.92-.72.48-2.46H45.54ZM57.72-2.28A3.035,3.035,0,0,0,60.96.78c4.26,0,7.38-3.72,10.08-7.32l-1.5-1.14q-3.6,4.32-5.76,4.32a1.292,1.292,0,0,1-1.32-1.32A23.333,23.333,0,0,1,63-8.1l4.26-20.52-.78-.6-10.2,3.06-.24,1.74,5.94.36-3.6,17.4A20.117,20.117,0,0,0,57.72-2.28Zm8.82-35.1a3.848,3.848,0,0,0,3.54-3.78,3.156,3.156,0,0,0-3.24-3.48,3.748,3.748,0,0,0-3.54,3.72C63.3-38.7,64.62-37.38,66.54-37.38ZM75.18,0l.6.48L79.8,0c.78-4.26,1.5-8.4,2.4-12.6l.72-3.12a30.942,30.942,0,0,1,7.38-9.9,6.717,6.717,0,0,0,3.54,1.56c1.98,0,3.12-1.38,3.18-3.36A4.462,4.462,0,0,0,93-29.22c-3.18,0-6.48,4.14-9.06,8.64l1.32-8.04-.78-.6-9.9,3.06-.24,1.74,5.94.36Zm41.28.78c4.26,0,7.26-3.78,9.84-7.32l-1.38-1.14c-2.4,2.76-4.44,4.32-5.7,4.32a1.386,1.386,0,0,1-1.5-1.38,19.717,19.717,0,0,1,.54-3.48l7.2-35.7-.66-.48-10.32,3-.24,1.74,5.64.36c-.54,3.6-1.2,7.14-1.92,10.68l-4.32,21.9a27.381,27.381,0,0,0-.54,4.02A3.181,3.181,0,0,0,116.46.78ZM130.8-2.28A3.035,3.035,0,0,0,134.04.78c4.26,0,7.38-3.72,10.08-7.32l-1.5-1.14q-3.6,4.32-5.76,4.32a1.292,1.292,0,0,1-1.32-1.32,23.333,23.333,0,0,1,.54-3.42l4.26-20.52-.78-.6-10.2,3.06-.24,1.74,5.94.36-3.6,17.4A20.117,20.117,0,0,0,130.8-2.28Zm8.82-35.1a3.848,3.848,0,0,0,3.54-3.78,3.156,3.156,0,0,0-3.24-3.48,3.748,3.748,0,0,0-3.54,3.72C136.38-38.7,137.7-37.38,139.62-37.38Zm21.66,10.74a3.232,3.232,0,0,1,3.36,3.54c0,3.24-3.54,7.38-13.5,10.26C151.74-20.34,157.56-26.64,161.28-26.64ZM156,.78c4.38,0,8.28-3.36,10.8-7.44l-1.38-1.08c-1.62,2.04-4.32,4.38-8.1,4.38-3.66,0-5.94-2.04-6.18-7.14,13.68-3.96,17.46-9.36,17.46-13.2,0-3.54-2.1-5.52-6-5.52-8.4,0-15.66,9.18-15.66,18.84C146.94-2.7,150.72.78,156,.78Zm21.3-7.02c0-2.28.24-3.78,1.2-8.34l.9-4.14c3.84-4.14,7.14-6.48,9.72-6.48,2.22,0,3.66,1.92,3.66,5.76a19.1,19.1,0,0,1-5.4,13.2A10.4,10.4,0,0,1,180.3-3C178.38-3,177.3-4.2,177.3-6.24Zm.36,7.02c9.72,0,19.62-12.48,19.62-22.62,0-5.4-2.52-7.38-5.46-7.38-3.54,0-8.22,2.88-11.88,7.68l4.62-22.38-.66-.48-10.38,3-.3,1.74,5.94.42-5.1,25.62a53.748,53.748,0,0,0-1.38,9.42A4.786,4.786,0,0,0,177.66.78Zm37.68-27.42a3.232,3.232,0,0,1,3.36,3.54c0,3.24-3.54,7.38-13.5,10.26C205.8-20.34,211.62-26.64,215.34-26.64ZM210.06.78c4.38,0,8.28-3.36,10.8-7.44l-1.38-1.08c-1.62,2.04-4.32,4.38-8.1,4.38-3.66,0-5.94-2.04-6.18-7.14,13.68-3.96,17.46-9.36,17.46-13.2,0-3.54-2.1-5.52-6-5.52-8.4,0-15.66,9.18-15.66,18.84C201-2.7,204.78.78,210.06.78ZM231.36,0c.78-4.26,1.5-8.4,2.4-12.6l1.62-7.26c4.38-3.6,7.8-5.34,9.96-5.34,1.32,0,2.1.66,2.1,2.76a28.9,28.9,0,0,1-.96,5.22L243.9-6.66a20.957,20.957,0,0,0-.96,4.86c0,1.56,1.14,2.58,3,2.58,4.14,0,8.04-3.78,10.38-7.32l-1.44-1.14c-2.16,2.7-4.44,4.32-5.94,4.32a1.108,1.108,0,0,1-1.14-1.26,23.038,23.038,0,0,1,.78-3.48l2.7-11.1a25.576,25.576,0,0,0,.96-5.88c0-2.76-1.32-4.14-3.84-4.14-3.66,0-8.58,3-12.54,6.78l1.26-6.18-.78-.6-10.2,3.06-.24,1.74,5.94.36L226.74,0l.6.48Z" transform="translate(0.78 46.14)" fill="url(#linear-gradient)"/>
    </g>
    <g transform="matrix(1, 0, 0, 1, 131.22, 675.86)" filter="url(#Pfad_321)">
      <path id="Pfad_321-2" data-name="Pfad 321" d="M9.258-85.664H39.141q17.461,0,25.928,5.186t8.467,16.143a20.414,20.414,0,0,1-3.691,12.3,16.466,16.466,0,0,1-9.727,6.563v.586q7.969,2.109,11.543,7.031t3.574,12.773q0,11.66-8.76,18.369T42.6,0H9.258ZM32.4-52.793h6.973q4.98,0,7.705-2.051A7.146,7.146,0,0,0,49.8-60.937q0-7.207-10.9-7.207H32.4Zm0,16.934v17.988h8.145q10.84,0,10.84-9.141a7.862,7.862,0,0,0-2.9-6.562q-2.9-2.285-8.408-2.285Zm80.859,4.688V0H90.117V-85.664h28.066q34.922,0,34.922,25.313,0,14.883-14.531,23.027L163.535,0h-26.25L119.121-31.172Zm0-17.4H117.6q12.129,0,12.129-10.723,0-8.848-11.895-8.848h-4.57ZM223.887,0l-4.219-16.055H191.836L187.5,0H162.07L190.02-86.016H220.9L249.2,0Zm-9.023-35.039L211.172-49.1q-1.289-4.687-3.135-12.129t-2.432-10.664q-.527,2.988-2.08,9.844t-6.885,27.012ZM331.875,0H308.613V-34.922H281.719V0H258.457V-85.664h23.262v31.758h26.895V-85.664h23.262Zm55.84,0L370.2-61.7h-.527q1.23,15.762,1.23,24.492V0H350.391V-85.664h30.82l17.871,60.82h.469l17.52-60.82h30.879V0H426.68V-37.559q0-2.93.088-6.5t.791-17.52h-.527L409.746,0ZM522.422-26.016a25.27,25.27,0,0,1-4.043,14.15,26.475,26.475,0,0,1-11.66,9.609,43.221,43.221,0,0,1-17.871,3.428,72.3,72.3,0,0,1-14.355-1.2,53.294,53.294,0,0,1-12.07-4.189V-24.844a68.929,68.929,0,0,0,13.77,5.3,51.308,51.308,0,0,0,13.125,1.9q5.156,0,7.559-1.787a5.494,5.494,0,0,0,2.4-4.6,5.062,5.062,0,0,0-.967-3.076,11.258,11.258,0,0,0-3.105-2.666q-2.139-1.348-11.4-5.508-8.379-3.809-12.568-7.383a22.666,22.666,0,0,1-6.211-8.2,27.228,27.228,0,0,1-2.021-10.957q0-11.836,8.613-18.457t23.672-6.621a66.427,66.427,0,0,1,27.129,6.152l-7.09,17.871q-12.012-5.508-20.742-5.508-4.512,0-6.562,1.582a4.787,4.787,0,0,0-2.051,3.926,5.668,5.668,0,0,0,2.607,4.512q2.607,1.992,14.15,7.266,11.074,4.98,15.381,10.693T522.422-26.016Z" transform="translate(0.78 163.14)" fill="url(#linear-gradient)"/>
    </g>
  </g>
</svg>
